<svg width="65" height="70" viewBox="0 0 65 70" fill="none" xmlns="http://www.w3.org/2000/svg">
<path d="M13.3875 8.27631C13.8412 8.08256 14.3 7.88131 14.76 7.65631C15.0573 7.51151 15.4 7.49047 15.7128 7.59779C16.0257 7.70511 16.2832 7.93205 16.4291 8.2289C16.575 8.52575 16.5972 8.8683 16.491 9.18153C16.3848 9.49477 16.1588 9.75314 15.8625 9.90006C15.3625 10.1463 14.8625 10.3638 14.3712 10.5751C14.0664 10.7055 13.7222 10.7095 13.4144 10.5862C13.1066 10.4629 12.8604 10.2224 12.73 9.91756C12.5995 9.61273 12.5955 9.26856 12.7188 8.96076C12.8421 8.65297 13.0826 8.40676 13.3875 8.27631Z" fill="url(#paint0_linear_7_10)"/>
<path d="M6.73004 12.9413C7.62954 11.7985 8.70555 10.8064 9.91754 10.0026C10.1952 9.82105 10.5336 9.75728 10.8582 9.82526C11.1829 9.89324 11.4673 10.0874 11.6488 10.3651C11.8303 10.6427 11.8941 10.9811 11.8261 11.3058C11.7581 11.6304 11.5639 11.9148 11.2863 12.0963C10.292 12.7557 9.4107 13.5711 8.67629 14.5113C8.46809 14.7694 8.1659 14.9342 7.83619 14.9695C7.50648 15.0048 7.17625 14.9076 6.91816 14.6994C6.66008 14.4912 6.49526 14.189 6.45998 13.8593C6.4247 13.5296 6.52184 13.1994 6.73004 12.9413Z" fill="url(#paint1_linear_7_10)"/>
<path d="M48.5812 50.5463C45.0742 54.955 40.1795 58.0483 34.6924 59.3238C33.1762 57.6488 25.9862 50.4463 15.2899 51.1938C10.5191 51.6407 6.02667 53.6409 2.50244 56.8876C2.26587 57.1036 2.09018 57.3779 1.99297 57.6832C1.89576 57.9884 1.88044 58.3138 1.94854 58.6269C2.01663 58.9399 2.16576 59.2295 2.381 59.4668C2.59623 59.7041 2.87002 59.8807 3.17494 59.9788C11.3062 62.6688 10.6224 67.2688 20.1349 69.1338C25.8937 70.2588 30.7012 66.5526 34.3824 61.9551C40.7648 60.6881 46.4898 57.1961 50.5374 52.1013C50.7326 51.841 50.8185 51.5148 50.777 51.1921C50.7354 50.8694 50.5697 50.5756 50.315 50.3732C50.0603 50.1707 49.7367 50.0755 49.413 50.1079C49.0892 50.1402 48.7908 50.2975 48.5812 50.5463ZM20.6162 66.6801C12.1837 65.0276 12.9712 61.0851 5.05119 58.0001C8.00449 55.5417 11.6346 54.0379 15.4612 53.6876C23.3687 53.1476 29.2012 57.5376 31.6862 59.8413C30.7942 59.9418 29.8975 59.9948 28.9999 60.0001C25.5875 60.0072 22.2102 59.3111 19.0787 57.9551C18.7762 57.8328 18.4379 57.8336 18.136 57.9574C17.8341 58.0812 17.5925 58.3181 17.463 58.6176C17.3334 58.917 17.3261 59.2553 17.4425 59.5601C17.5589 59.8649 17.79 60.1121 18.0862 60.2488C21.5308 61.7411 25.246 62.5075 28.9999 62.5001C29.5499 62.5001 30.0999 62.4588 30.6499 62.4263C27.2937 65.8876 23.9274 67.3288 20.6162 66.6801Z" fill="url(#paint2_linear_7_10)"/>
<path d="M64.2212 32.5813C63.5212 27.7113 59.7388 24.0162 52.9913 21.5812C50.6041 17.3142 47.123 13.7603 42.9062 11.2854C38.6895 8.81043 33.8894 7.50381 29 7.5C28.6685 7.5 28.3505 7.6317 28.1161 7.86612C27.8817 8.10054 27.75 8.41848 27.75 8.75C27.75 9.08152 27.8817 9.39946 28.1161 9.63388C28.3505 9.8683 28.6685 10 29 10C33.2638 10.0052 37.4554 11.1015 41.1757 13.1847C44.8959 15.2679 48.0211 18.2687 50.2537 21.9012C49.3875 23.43 44.5037 32.8562 48.8862 43.0762C50.8832 47.4314 54.2539 51.0112 58.4812 53.2663C58.7631 53.4183 59.08 53.4936 59.4001 53.4847C59.7203 53.4758 60.0324 53.383 60.3054 53.2155C60.5784 53.0481 60.8027 52.8119 60.9557 52.5306C61.1087 52.2492 61.1852 51.9327 61.1775 51.6125C61.0325 43.0638 65.6 42.1738 64.2212 32.5813ZM58.69 50.4938C55.3952 48.5166 52.7779 45.5862 51.1838 42.09C48.0113 34.6925 50.3575 27.6238 51.7025 24.595C53.495 28.4629 54.2596 32.7278 53.9225 36.9775C53.9099 37.1412 53.9296 37.3059 53.9806 37.462C54.0316 37.6181 54.1128 37.7626 54.2196 37.8874C54.3265 38.0121 54.4569 38.1145 54.6033 38.1889C54.7497 38.2632 54.9094 38.308 55.0731 38.3206C55.2369 38.3333 55.4015 38.3135 55.5576 38.2625C55.7137 38.2116 55.8583 38.1303 55.983 38.0235C56.1077 37.9166 56.2102 37.7863 56.2845 37.6398C56.3588 37.4934 56.4036 37.3337 56.4162 37.17C56.7455 33.0125 56.1213 28.8347 54.5912 24.955C58.855 26.9713 61.2725 29.6425 61.7462 32.9363C62.9587 41.3738 58.9837 42.0925 58.69 50.4938Z" fill="url(#paint3_linear_7_10)"/>
<path d="M21.08 15.4026C16.5137 26.2638 5.36749 29.0226 4.69248 29.1776C3.89156 32.5013 3.78253 35.9542 4.37215 39.3218C4.96177 42.6895 6.23746 45.8999 8.11998 48.7538C8.30148 49.0305 8.36589 49.3678 8.29908 49.6919C8.23227 50.0159 8.0397 50.3003 7.76358 50.4826C7.48745 50.6649 7.15031 50.7303 6.82605 50.6645C6.50179 50.5986 6.21687 50.4069 6.03373 50.1313C3.82222 46.7782 2.37346 42.9807 1.78966 39.0066C1.20586 35.0325 1.50125 30.9788 2.65498 27.1313C-0.222515 20.5788 -0.456264 15.1938 4.10999 10.1951C4.3336 9.95023 4.64531 9.80426 4.97654 9.78926C5.30778 9.77426 5.63141 9.89145 5.87624 10.1151C6.12106 10.3387 6.26703 10.6504 6.28204 10.9816C6.29704 11.3129 6.17984 11.6365 5.95623 11.8813C3.47623 14.5976 2.06874 17.6388 3.98499 23.5776C5.67378 19.8791 8.16136 16.6009 11.2687 13.9788C11.5228 13.7715 11.8481 13.6723 12.1746 13.7026C12.5011 13.733 12.8026 13.8904 13.0142 14.1409C13.2257 14.3915 13.3303 14.7151 13.3054 15.0421C13.2806 15.369 13.1282 15.6731 12.8812 15.8888C9.58438 18.6715 7.06426 22.2605 5.56624 26.3063C8.54999 25.2601 15.5662 22.0663 18.775 14.4338C20.184 10.8587 20.4743 6.94003 19.6075 3.19631C15.8775 6.55381 14.1762 6.68381 11.3237 7.98381C11.1744 8.05193 11.013 8.08997 10.8489 8.09574C10.6849 8.10151 10.5213 8.07491 10.3675 8.01746C10.2137 7.96 10.0727 7.87281 9.95259 7.76088C9.83249 7.64894 9.73561 7.51444 9.66749 7.36506C9.59936 7.21568 9.56133 7.05435 9.55555 6.89027C9.54978 6.72619 9.57638 6.56259 9.63384 6.40879C9.6913 6.25499 9.77848 6.11402 9.89042 5.99391C10.0024 5.87381 10.1369 5.77693 10.2862 5.70881C13.0712 4.43756 15.1362 4.17381 18.685 0.630061C18.91 0.402122 19.1908 0.237261 19.4995 0.151974C19.8082 0.0666872 20.1339 0.063965 20.444 0.14408C20.7541 0.224195 21.0377 0.384338 21.2664 0.608485C21.4952 0.832632 21.6611 1.11292 21.7475 1.42131C23.0613 6.02916 22.8268 10.9408 21.08 15.4026Z" fill="url(#paint4_linear_7_10)"/>
<path d="M8.91248 8.67126C8.91248 8.91849 8.83916 9.16017 8.70181 9.36573C8.56446 9.57129 8.36924 9.7315 8.14083 9.82611C7.91242 9.92072 7.66109 9.94548 7.41861 9.89725C7.17614 9.84901 6.95341 9.72996 6.77859 9.55515C6.60378 9.38033 6.48473 9.1576 6.43649 8.91513C6.38826 8.67265 6.41302 8.42132 6.50763 8.19291C6.60224 7.9645 6.76245 7.76928 6.96801 7.63193C7.17357 7.49458 7.41525 7.42126 7.66248 7.42126C7.994 7.42126 8.31194 7.55296 8.54636 7.78738C8.78078 8.0218 8.91248 8.33974 8.91248 8.67126Z" fill="url(#paint5_linear_7_10)"/>
<defs>
<linearGradient id="paint0_linear_7_10" x1="9.84873" y1="4.35881" x2="54.9562" y2="49.4663" gradientUnits="userSpaceOnUse">
<stop stop-color="#25BE9E"/>
<stop offset="1" stop-color="#DAD3F7"/>
</linearGradient>
<linearGradient id="paint1_linear_7_10" x1="5.48879" y1="8.72006" x2="50.5963" y2="53.8276" gradientUnits="userSpaceOnUse">
<stop stop-color="#25BE9E"/>
<stop offset="1" stop-color="#DAD3F7"/>
</linearGradient>
<linearGradient id="paint2_linear_7_10" x1="-7.17006" y1="21.3788" x2="37.9374" y2="66.4851" gradientUnits="userSpaceOnUse">
<stop stop-color="#25BE9E"/>
<stop offset="1" stop-color="#DAD3F7"/>
</linearGradient>
<linearGradient id="paint3_linear_7_10" x1="16.7475" y1="-2.53875" x2="61.855" y2="42.5687" gradientUnits="userSpaceOnUse">
<stop stop-color="#25BE9E"/>
<stop offset="1" stop-color="#DAD3F7"/>
</linearGradient>
<linearGradient id="paint4_linear_7_10" x1="1.23624" y1="12.9726" x2="46.3437" y2="58.0788" gradientUnits="userSpaceOnUse">
<stop stop-color="#25BE9E"/>
<stop offset="1" stop-color="#DAD3F7"/>
</linearGradient>
<linearGradient id="paint5_linear_7_10" x1="6.59873" y1="7.60877" x2="51.7062" y2="52.7163" gradientUnits="userSpaceOnUse">
<stop stop-color="#25BE9E"/>
<stop offset="1" stop-color="#DAD3F7"/>
</linearGradient>
</defs>
</svg>
