<svg width="24" height="25" viewBox="0 0 24 25" fill="none" xmlns="http://www.w3.org/2000/svg">
<path d="M18 9.5C18.4142 9.5 18.75 9.16421 18.75 8.75C18.75 8.33579 18.4142 8 18 8C17.5858 8 17.25 8.33579 17.25 8.75C17.25 9.16421 17.5858 9.5 18 9.5Z" fill="#156064"/>
<path d="M12 7.25C12.4142 7.25 12.75 6.91421 12.75 6.5C12.75 6.08579 12.4142 5.75 12 5.75C11.5858 5.75 11.25 6.08579 11.25 6.5C11.25 6.91421 11.5858 7.25 12 7.25Z" fill="#156064"/>
<path d="M6 11C6.41421 11 6.75 10.6642 6.75 10.25C6.75 9.83579 6.41421 9.5 6 9.5C5.58579 9.5 5.25 9.83579 5.25 10.25C5.25 10.6642 5.58579 11 6 11Z" fill="#156064"/>
<path d="M10.125 18.5C11.1605 18.5 12 17.6605 12 16.625C12 15.5895 11.1605 14.75 10.125 14.75C9.08947 14.75 8.25 15.5895 8.25 16.625C8.25 17.6605 9.08947 18.5 10.125 18.5Z" fill="#156064"/>
<path d="M19.5003 4.115C18.1411 2.89921 16.5067 2.03206 14.7379 1.58825C12.9691 1.14444 11.119 1.13726 9.3468 1.56734C7.57462 1.99742 5.93357 2.85187 4.56498 4.05708C3.19639 5.26229 2.14129 6.78214 1.49058 8.48571C0.839867 10.1893 0.61304 12.0255 0.829637 13.8362C1.04623 15.6469 1.69976 17.3778 2.73393 18.8798C3.76809 20.3819 5.1519 21.61 6.76614 22.4584C8.38038 23.3068 10.1767 23.75 12.0003 23.75C12.3678 23.75 12.7503 23.75 13.1178 23.6975C13.6794 23.6415 14.2218 23.4627 14.7065 23.1736C15.1913 22.8846 15.6065 22.4924 15.9228 22.025C16.5368 21.1173 16.8635 20.0459 16.8603 18.95C16.8615 18.6154 16.8313 18.2815 16.7703 17.9525C16.6661 17.3785 16.6891 16.7886 16.8376 16.2244C16.9861 15.6602 17.2565 15.1355 17.6297 14.6871C18.003 14.2387 18.4701 13.8777 18.998 13.6294C19.5259 13.3811 20.1019 13.2516 20.6853 13.25H22.5003C22.6992 13.25 22.89 13.171 23.0306 13.0303C23.1713 12.8897 23.2503 12.6989 23.2503 12.5C23.2503 10.9172 22.9162 9.35223 22.27 7.90734C21.6238 6.46246 20.68 5.1702 19.5003 4.115ZM3.75029 10.25C3.75029 9.80499 3.88225 9.36998 4.12948 8.99997C4.37671 8.62996 4.72812 8.34157 5.13925 8.17127C5.55038 8.00097 6.00278 7.95642 6.43924 8.04323C6.8757 8.13005 7.27661 8.34434 7.59128 8.65901C7.90595 8.97368 8.12024 9.37459 8.20705 9.81105C8.29387 10.2475 8.24931 10.6999 8.07902 11.111C7.90872 11.5222 7.62033 11.8736 7.25032 12.1208C6.88031 12.368 6.4453 12.5 6.00029 12.5C5.40355 12.5 4.83125 12.2629 4.4093 11.841C3.98734 11.419 3.75029 10.8467 3.75029 10.25ZM10.1253 20C9.45778 20 8.80525 19.8021 8.25024 19.4312C7.69522 19.0604 7.26264 18.5333 7.00719 17.9166C6.75175 17.2999 6.68491 16.6213 6.81514 15.9666C6.94536 15.3119 7.2668 14.7105 7.7388 14.2385C8.2108 13.7665 8.81217 13.4451 9.46686 13.3148C10.1215 13.1846 10.8001 13.2515 11.4168 13.5069C12.0335 13.7624 12.5606 14.1949 12.9315 14.75C13.3023 15.305 13.5003 15.9575 13.5003 16.625C13.4983 17.5195 13.1421 18.3768 12.5096 19.0093C11.8771 19.6418 11.0198 19.998 10.1253 20ZM12.0003 8.75C11.5553 8.75 11.1203 8.61804 10.7503 8.37081C10.3802 8.12357 10.0919 7.77217 9.92156 7.36104C9.75126 6.9499 9.7067 6.4975 9.79352 6.06105C9.88034 5.62459 10.0946 5.22368 10.4093 4.90901C10.724 4.59434 11.1249 4.38005 11.5613 4.29323C11.9978 4.20642 12.4502 4.25097 12.8613 4.42127C13.2725 4.59157 13.6239 4.87996 13.8711 5.24997C14.1183 5.61998 14.2503 6.05499 14.2503 6.5C14.2503 7.09674 14.0132 7.66903 13.5913 8.09099C13.1693 8.51295 12.597 8.75 12.0003 8.75ZM18.0003 11C17.5553 11 17.1203 10.868 16.7503 10.6208C16.3802 10.3736 16.0919 10.0222 15.9216 9.61104C15.7513 9.1999 15.7067 8.7475 15.7935 8.31105C15.8803 7.87459 16.0946 7.47368 16.4093 7.15901C16.724 6.84434 17.1249 6.63005 17.5613 6.54323C17.9978 6.45642 18.4502 6.50097 18.8613 6.67127C19.2725 6.84157 19.6239 7.12996 19.8711 7.49997C20.1183 7.86998 20.2503 8.30499 20.2503 8.75C20.2503 9.34674 20.0132 9.91903 19.5913 10.341C19.1693 10.7629 18.597 11 18.0003 11Z" fill="#156064"/>
</svg>
